<?xml version="1.0" encoding="utf-8"?>
<!-- Generator: Adobe Illustrator 25.4.1, SVG Export Plug-In . SVG Version: 6.00 Build 0)  -->
<svg version="1.1" id="Capa_1" xmlns="http://www.w3.org/2000/svg" xmlns:xlink="http://www.w3.org/1999/xlink" x="0px" y="0px"
	 viewBox="0 0 500 500" style="enable-background:new 0 0 500 500;" xml:space="preserve">
<style type="text/css">
	.st0{fill:url(#SVGID_1_);}
	.st1{fill:#FFFFFF;}
</style>
<linearGradient id="SVGID_1_" gradientUnits="userSpaceOnUse" x1="253.1352" y1="409.4937" x2="245.1352" y2="2.4937" gradientTransform="matrix(1 0 0 -1 0 499.8898)">
	<stop  offset="0" style="stop-color:#0082FF"/>
	<stop  offset="0.9969" style="stop-color:#001355"/>
</linearGradient>
<ellipse class="st0" cx="250" cy="249.9" rx="205.8" ry="205.8"/>
<g>
	<path class="st1" d="M271.3,396.8c-6.2,0-12.2-1.9-18-5.7c-6.4-4.5-9.7-9.5-9.7-15.4v-31.6h-0.3V217.4h-13.3v108.8h-55V175h55v10.7
		c9.1-7.1,22.8-10.7,41.1-10.7c18.2,0,27.3,7.1,27.3,21.4v158.4h69v42H271.3"/>
</g>
<g>
	<path class="st1" d="M379.1,228.2h-0.7v-10.6c0-5.1-5.1-9.2-11.4-9.2H362h-3.3c-1.9,0-3.7,0.4-5.2,1v-32.9c0-0.4,0-0.7-0.1-1.1
		c-1.3-56.6-51.8-102.4-113.8-102.4c-0.6,0-1.2,0-1.8,0c-58.6,0.9-106.6,42.6-111.6,95.5c-4.2,1.3-7.3,4.7-7.3,8.6v26.7
		c-1.6-0.7-3.3-1-5.2-1h-3.3h-4.9c-6.2,0-11.4,4.2-11.4,9.2v5.3h-0.7c-2.4,0-4.3,1.6-4.3,3.5c0,1.9,2,3.5,4.3,3.5h0.7v10.6
		c0,5.1,5.1,9.2,11.4,9.2h4.9h3.3c1.9,0,3.7-0.4,5.2-1v32.9c0,5.1,5.1,9.2,11.4,9.2h12h6.6c6.2,0,11.4-4.2,11.4-9.2v-98.9
		c0-5.1-5.1-9.2-11.4-9.2h-4c5.1-43.9,44.7-78.3,93-79.2c0.6,0,1.2,0,1.8,0c48.8,0,89.2,34.4,94.7,78.6h-4.2h-6.6
		c-6.2,0-11.4,4.2-11.4,9.2v98.9c0,5.1,5.1,9.2,11.4,9.2h6.6h12c6.2,0,11.4-4.2,11.4-9.2v-26.7c1.6,0.7,3.3,1,5.2,1h3.3h4.9
		c6.2,0,11.4-4.2,11.4-9.2v-5.3h0.7c2.4,0,4.3-1.6,4.3-3.5C383.4,229.8,381.4,228.2,379.1,228.2z"/>
</g>
</svg>
