<?xml version="1.0" encoding="utf-8"?>
<!-- Generator: Adobe Illustrator 23.1.1, SVG Export Plug-In . SVG Version: 6.00 Build 0)  -->
<svg version="1.1" id="Capa_1" xmlns="http://www.w3.org/2000/svg" xmlns:xlink="http://www.w3.org/1999/xlink" x="0px" y="0px"
	 viewBox="0 0 500 500" style="enable-background:new 0 0 500 500;" xml:space="preserve">
<style type="text/css">
	.st0{fill:url(#SVGID_1_);}
	.st1{fill-rule:evenodd;clip-rule:evenodd;fill:#FFFFFF;}
</style>
<linearGradient id="SVGID_1_" gradientUnits="userSpaceOnUse" x1="253.135" y1="90.3961" x2="245.135" y2="497.3961">
	<stop  offset="0" style="stop-color:#0082FF"/>
	<stop  offset="0.9969" style="stop-color:#001355"/>
</linearGradient>
<ellipse class="st0" cx="250" cy="249.9" rx="205.8" ry="205.8"/>
<path class="st1" d="M215.9,252.2v126c0,1.8,1.5,3.3,3.3,3.3H266c1.8,0,3.3-1.5,3.3-3.3V250.2h33.9c1.7,0,3.1-1.3,3.3-3l3.3-38.6
	c0.2-1.9-1.4-3.6-3.3-3.6h-37.2v-27.4c0-6.4,5.2-11.6,11.6-11.6H307c1.8,0,3.3-1.5,3.3-3.3v-38.6c0-1.8-1.5-3.3-3.3-3.3h-44.2
	c-25.9,0-47,21-47,47V205h-23.4c-1.8,0-3.3,1.5-3.3,3.3v38.6c0,1.8,1.5,3.3,3.3,3.3h23.4L215.9,252.2L215.9,252.2z"/>
</svg>
