<?xml version="1.0" encoding="utf-8"?>
<!-- Generator: Adobe Illustrator 23.0.3, SVG Export Plug-In . SVG Version: 6.00 Build 0)  -->
<svg version="1.1" id="Capa_1" xmlns="http://www.w3.org/2000/svg" xmlns:xlink="http://www.w3.org/1999/xlink" x="0px" y="0px"
	 viewBox="0 0 175.74 55.88" style="enable-background:new 0 0 175.74 55.88;" xml:space="preserve">
<style type="text/css">
	.st0{fill:#00378B;}
	.st1{fill-rule:evenodd;clip-rule:evenodd;fill:#00378B;}
	.st2{fill:#009634;}
</style>
<path class="st0" d="M32.24,36.41c0,2.45-1.6,3.7-4.81,3.7H15.35c-3.2,0-4.8-1.24-4.8-3.7V14.14c0-2.51,1.6-3.75,4.8-3.75h12.07
	c3.21,0,4.81,1.24,4.81,3.75v8.79h-9.67v-5.11h-2.35v14.89h2.35v-7.04h9.67v10.74"/>
<path class="st1" d="M56.41,36.41c0,2.45-1.6,3.7-4.81,3.7H39.52c-3.2,0-4.81-1.24-4.81-3.7V14.14c0-2.51,1.6-3.75,4.81-3.75H51.6
	c3.21,0,4.81,1.24,4.81,3.75V36.41 M46.73,17.82h-2.35v14.89h2.35V17.82z"/>
<path class="st2" d="M75.81,49.36c-1.09,0-2.15-0.33-3.16-0.99c-1.13-0.79-1.7-1.68-1.7-2.7v-5.56h-0.06V17.82h-2.34v19.13h-9.67
	V10.38h9.67v1.88c1.6-1.25,4.01-1.88,7.22-1.88c3.19,0,4.8,1.24,4.8,3.75v27.84H92.7v7.38L75.81,49.36"/>
<polygon class="st0" points="92.71,21.52 99.46,21.52 99.46,28.97 92.71,28.97 92.71,32.71 99.46,32.71 99.46,40.11 83.04,40.11 
	83.04,10.38 99.46,10.38 99.46,17.82 92.71,17.82 "/>
<polygon class="st0" points="120.99,40.11 106.51,40.11 101.7,10.38 111.31,10.38 113.78,27.08 116.18,10.38 125.85,10.38 "/>
<path class="st1" d="M131.56,40.11c-3.19,0-4.8-1.24-4.8-3.7v-11.2c0-2.42,1.61-3.65,4.8-3.69h7.21v-3.69h-2.34v1.82h-9.68v-5.51
	c0-2.51,1.61-3.75,4.8-3.75h12.09c3.2,0,4.8,1.24,4.8,3.75v25.97L131.56,40.11 M138.78,28.97h-2.34v3.75h2.34V28.97z"/>
<polygon class="st0" points="150.92,40.11 150.92,10.38 160.6,10.38 160.6,32.71 166.87,32.71 166.87,40.11 "/>
</svg>
