<?xml version="1.0" encoding="utf-8"?>
<!-- Generator: Adobe Illustrator 23.1.1, SVG Export Plug-In . SVG Version: 6.00 Build 0)  -->
<svg version="1.1" id="Capa_1" xmlns="http://www.w3.org/2000/svg" xmlns:xlink="http://www.w3.org/1999/xlink" x="0px" y="0px"
	 viewBox="0 0 500 500" style="enable-background:new 0 0 500 500;" xml:space="preserve">
<style type="text/css">
	.st0{fill:url(#SVGID_1_);}
	.st1{fill:#FFFFFF;}
	.st2{fill-rule:evenodd;clip-rule:evenodd;fill:#FFFFFF;}
</style>
<g>
	<linearGradient id="SVGID_1_" gradientUnits="userSpaceOnUse" x1="42.3485" y1="250.0001" x2="457.6445" y2="250.0001">
		<stop  offset="0" style="stop-color:#0082FF"/>
		<stop  offset="0.9969" style="stop-color:#001355"/>
	</linearGradient>
	<ellipse class="st0" cx="250" cy="250" rx="207.6" ry="207.6"/>
	<g>
		<path class="st1" d="M376.1,169.9c-8.1,3.7-17.1,5.9-25.8,7.4c4.2-0.7,10.3-8.2,12.8-11.3c3.7-4.6,6.9-9.9,8.6-15.7
			c0.2-0.4,0.4-1,0-1.4c-0.6-0.2-0.9-0.1-1.4,0.1c-9.8,5.2-19.9,9.1-30.7,11.7c-0.9,0.2-1.6,0-2.1-0.6c-0.9-1-1.7-2-2.7-2.7
			c-4.5-3.9-9.4-6.9-14.9-9.1c-7.2-2.9-15-4.2-22.8-3.7c-7.5,0.5-14.9,2.6-21.6,6.1c-6.7,3.5-12.7,8.4-17.5,14.2
			c-4.9,6.1-8.6,13.3-10.4,20.9c-1.8,7.4-1.6,14.6-0.6,22c0.2,1.2,0.1,1.4-1.1,1.2c-42.1-6.3-77.1-21.4-105.4-53.7
			c-1.2-1.4-1.9-1.4-2.9,0.1c-12.4,18.6-6.4,48.5,9.1,63.2c2.1,2,4.2,3.9,6.5,5.7c-0.8,0.2-11.1-0.9-20.4-5.7
			c-1.2-0.8-1.9-0.3-2,1.1c-0.1,2,0.1,3.9,0.3,6c2.4,18.9,15.4,36.3,33.3,43.1c2.1,0.9,4.5,1.7,6.8,2.1c-4.1,0.9-8.3,1.5-20,0.6
			c-1.4-0.3-2,0.5-1.4,1.8c8.8,23.9,27.7,31.1,41.9,35.1c1.9,0.3,3.8,0.3,5.7,0.8c-0.1,0.2-0.2,0.2-0.3,0.3
			c-4.7,7.2-21,12.5-28.6,15.2c-13.8,4.8-28.9,7-43.5,5.6c-2.3-0.3-2.8-0.3-3.5,0c-0.6,0.4-0.1,1,0.7,1.6c3,2,6,3.7,9.1,5.4
			c9.3,4.9,19,8.8,29.1,11.6c52.2,14.4,111.1,3.8,150.3-35.1c30.8-30.6,41.6-72.8,41.6-115.1c0-1.6,2-2.6,3.1-3.4
			c8-6,14.4-13.2,20.4-21.3c1.3-1.8,1.3-3.4,1.3-4.1c0-0.1,0-0.2,0-0.2C377.1,169.2,377.2,169.4,376.1,169.9z"/>
		<path class="st2" d="M197.3,355.7C218.9,355.7,198.3,355.7,197.3,355.7C200.1,355.7,197.1,355.7,197.3,355.7z"/>
		<path class="st2" d="M197.3,355.7C196.9,355.8,193.1,355.7,197.3,355.7C197.3,355.7,196.6,355.7,197.3,355.7z"/>
		<path class="st2" d="M205.9,356C205.9,355.5,210.4,356,205.9,356C205.9,355.7,206.4,356,205.9,356z"/>
		<path class="st2" d="M296.3,146.3c-0.3,0.2-0.7,0.2-1.1,0C295.7,146.3,296.1,146.3,296.3,146.3z"/>
	</g>
</g>
</svg>
