<?xml version="1.0" encoding="utf-8"?>
<!-- Generator: Adobe Illustrator 23.1.1, SVG Export Plug-In . SVG Version: 6.00 Build 0)  -->
<svg version="1.1" id="Capa_1" xmlns="http://www.w3.org/2000/svg" xmlns:xlink="http://www.w3.org/1999/xlink" x="0px" y="0px"
	 viewBox="0 0 500 500" style="enable-background:new 0 0 500 500;" xml:space="preserve">
<style type="text/css">
	.st0{fill:url(#SVGID_1_);}
	.st1{fill:#FFFFFF;}
</style>
<g>
	<linearGradient id="SVGID_1_" gradientUnits="userSpaceOnUse" x1="46.6786" y1="250" x2="453.3147" y2="250">
		<stop  offset="0" style="stop-color:#0082FF"/>
		<stop  offset="0.9969" style="stop-color:#001355"/>
	</linearGradient>
	<ellipse class="st0" cx="250" cy="250" rx="203.3" ry="203.3"/>
	<g>
		<path class="st1" d="M378.6,217.4c0-30.5-24.7-55.2-55.2-55.2H180.4c-30.5,0-55.2,24.7-55.2,55.2v67.1c0,30.5,24.7,55.2,55.2,55.2
			h143.1c30.5,0,55.2-24.7,55.2-55.2V217.4z M288.4,254.3l-57.1,31.3c-2.5,1.3-4.7-0.5-4.7-3.3v-64.2c0-2.9,2.3-4.6,4.8-3.2
			l57.5,32.9C291.4,249.3,290.9,252.9,288.4,254.3z"/>
	</g>
</g>
</svg>
