<?xml version="1.0" encoding="utf-8"?>
<!-- Generator: Adobe Illustrator 23.1.1, SVG Export Plug-In . SVG Version: 6.00 Build 0)  -->
<svg version="1.1" id="Capa_1" xmlns="http://www.w3.org/2000/svg" xmlns:xlink="http://www.w3.org/1999/xlink" x="0px" y="0px"
	 viewBox="0 0 500 500" style="enable-background:new 0 0 500 500;" xml:space="preserve">
<style type="text/css">
	.st0{fill:url(#SVGID_1_);}
	.st1{fill:#FFFFFF;}
</style>
<g>
	
		<linearGradient id="SVGID_1_" gradientUnits="userSpaceOnUse" x1="76.2985" y1="76.1882" x2="516.5162" y2="516.4059" gradientTransform="matrix(1 0 0 -1 0 499.8898)">
		<stop  offset="0" style="stop-color:#0082FF"/>
		<stop  offset="0.9969" style="stop-color:#001355"/>
	</linearGradient>
	<circle class="st0" cx="250" cy="250" r="203.7"/>
	<g>
		<circle class="st1" cx="322.1" cy="179.1" r="15.8"/>
		<path class="st1" d="M251.8,183.5c-36.7,0-66.5,29.8-66.5,66.5s29.8,66.5,66.5,66.5s66.5-29.8,66.5-66.5S288.4,183.5,251.8,183.5z
			 M251.8,292.6c-23.5,0-42.6-19.1-42.6-42.6s19.1-42.6,42.6-42.6s42.6,19.1,42.6,42.6C294.3,273.5,275.2,292.6,251.8,292.6z"/>
		<g>
			<path class="st1" d="M304.5,385H196.8c-44.7,0-81.1-36.4-81.1-81.1V196.1c0-44.7,36.4-81.1,81.1-81.1h107.8
				c44.7,0,81.1,36.4,81.1,81.1v107.8C385.6,348.6,349.2,385,304.5,385z M196.8,140.4c-30.7,0-55.7,25-55.7,55.7v107.8
				c0,30.7,25,55.7,55.7,55.7h107.8c30.7,0,55.7-25,55.7-55.7V196.1c0-30.7-25-55.7-55.7-55.7H196.8z"/>
		</g>
	</g>
</g>
</svg>
