<?xml version="1.0" encoding="utf-8"?>
<!-- Generator: Adobe Illustrator 23.0.3, SVG Export Plug-In . SVG Version: 6.00 Build 0)  -->
<svg version="1.1" id="Capa_1" xmlns="http://www.w3.org/2000/svg" xmlns:xlink="http://www.w3.org/1999/xlink" x="0px" y="0px"
	 viewBox="0 0 338.56 47.16" style="enable-background:new 0 0 338.56 47.16;" xml:space="preserve">
<style type="text/css">
	.st0{fill:#27348B;}
</style>
<g>
	<path class="st0" d="M15.47,16.2h1.58v12.68h5.36v1.39h-6.94V16.2z"/>
	<path class="st0" d="M22.53,25.14c0-2.85,2.13-5.38,5.42-5.38c3.31,0,5.44,2.53,5.44,5.4s-2.13,5.38-5.44,5.38
		c-3.29,0-5.42-2.51-5.42-5.38V25.14z M23.91,25.17c0,2.32,1.77,4.07,4.03,4.07c2.28,0,4.03-1.75,4.03-4.09s-1.75-4.09-4.03-4.09
		c-2.26,0-4.03,1.75-4.03,4.09V25.17z"/>
	<path class="st0" d="M50.82,34.15h-1.41v-3.88V28.2c-0.48,1.05-1.92,2.36-4.22,2.36c-3.16,0-5.23-2.47-5.23-5.34
		c0-3.02,2.13-5.46,5.3-5.46c2.09,0,3.5,1.06,4.2,2.34v-2.05h1.35V34.15z M41.35,25.19c0,2.24,1.73,4.05,4.09,4.05
		c1.14,0,2.15-0.44,2.89-1.18c0.72-0.72,1.16-1.75,1.16-2.89c0.04-1.14-0.4-2.17-1.14-2.91c-0.72-0.76-1.77-1.22-2.89-1.22
		c-2.74,0-4.09,2.15-4.11,4.13V25.19z"/>
	<path class="st0" d="M62.78,30.27h-1.33v-1.83c-0.57,1.33-1.96,2.13-3.78,2.11c-3.19-0.06-4.32-2.22-4.32-4.71v-5.8h1.39v5.53
		c0,2.21,0.99,3.69,3.29,3.67c2.13-0.02,3.35-1.29,3.35-3.42v-5.78h1.41V30.27z"/>
	<path class="st0" d="M65.96,25.55c0.08,2.57,2.26,3.8,3.99,3.78c1.58,0,2.85-0.78,3.52-2.11h1.46c-0.48,1.1-1.2,1.94-2.07,2.49
		c-0.86,0.55-1.86,0.84-2.91,0.84c-3.56,0-5.4-2.83-5.4-5.38c0-3,2.32-5.42,5.38-5.42c1.45,0,2.78,0.51,3.75,1.44
		c1.18,1.14,1.75,2.72,1.6,4.35H65.96z M73.89,24.43c-0.09-1.79-1.83-3.54-3.94-3.48c-2.21,0-3.84,1.62-3.97,3.48H73.89z"/>
	<path class="st0" d="M86.98,22.61c0-1.08-0.72-1.69-1.75-1.69c-1.12,0-1.81,0.76-1.77,1.65c0.04,0.97,0.78,1.37,2.02,1.73
		c1.46,0.4,3.1,0.82,3.18,3c0.08,1.88-1.44,3.25-3.38,3.25c-1.65,0-3.48-1.05-3.5-3.19h1.39c0.06,1.41,1.1,2.03,2.13,2.03
		c1.18,0,2-0.87,1.98-1.92c-0.04-1.16-0.8-1.63-2.57-2.15c-1.46-0.44-2.6-1.03-2.64-2.64c0-1.84,1.46-2.93,3.19-2.93
		c1.43,0,3.02,0.78,3.12,2.85H86.98z"/>
	<path class="st0" d="M91.37,25.55c0.08,2.57,2.26,3.8,3.99,3.78c1.58,0,2.85-0.78,3.52-2.11h1.46c-0.48,1.1-1.2,1.94-2.07,2.49
		c-0.86,0.55-1.86,0.84-2.91,0.84c-3.56,0-5.4-2.83-5.4-5.38c0-3,2.32-5.42,5.38-5.42c1.45,0,2.78,0.51,3.75,1.44
		c1.18,1.14,1.75,2.72,1.6,4.35H91.37z M99.3,24.43c-0.09-1.79-1.83-3.54-3.94-3.48c-2.21,0-3.84,1.62-3.97,3.48H99.3z"/>
	<path class="st0" d="M107.78,20.04h1.33v1.62c0.65-1.29,2.07-1.9,3.23-1.9c1.06,0,2.07,0.34,2.79,1.16
		c0.27,0.27,0.61,0.95,0.67,1.06c0.15-0.29,0.36-0.68,0.74-1.08c0.67-0.7,1.67-1.14,2.81-1.14c1.05,0,2.05,0.3,2.76,1.03
		c0.89,0.89,1.16,2,1.16,3.8v5.68h-1.41v-5.63c0-1.08-0.17-2.05-0.76-2.72c-0.42-0.53-1.06-0.86-2.03-0.86
		c-0.89,0-1.77,0.36-2.24,1.06c-0.51,0.72-0.61,1.29-0.61,2.45v5.68h-1.41v-5.68c0.04-1.14-0.13-1.81-0.53-2.43
		c-0.48-0.67-1.2-1.06-2.24-1.08c-0.95-0.04-1.75,0.44-2.17,1.05c-0.44,0.59-0.68,1.37-0.68,2.45v5.7h-1.41V20.04z"/>
	<path class="st0" d="M125.77,16.2h1.41v1.96h-1.41V16.2z M125.77,20.04h1.41v10.23h-1.41V20.04z"/>
	<path class="st0" d="M139.96,30.27h-1.35v-2.11c-0.72,1.35-2.09,2.4-4.22,2.4c-3.27,0-5.29-2.55-5.29-5.42
		c0-3.04,2.21-5.38,5.27-5.38c2.24,0,3.73,1.29,4.18,2.36v-2.17V16.2h1.41V30.27z M130.49,25.16c0.02,2.05,1.44,4.09,4.11,4.09
		c1.14,0,2.19-0.46,2.91-1.2c0.74-0.76,1.18-1.81,1.14-2.95c0-1.16-0.44-2.15-1.18-2.87c-0.72-0.74-1.75-1.18-2.89-1.18
		c-2.36,0-4.09,1.79-4.09,4.09V25.16z"/>
	<path class="st0" d="M143.18,25.55c0.08,2.57,2.26,3.8,3.99,3.78c1.58,0,2.85-0.78,3.52-2.11h1.46c-0.48,1.1-1.2,1.94-2.07,2.49
		c-0.86,0.55-1.86,0.84-2.91,0.84c-3.56,0-5.4-2.83-5.4-5.38c0-3,2.32-5.42,5.38-5.42c1.45,0,2.78,0.51,3.75,1.44
		c1.18,1.14,1.75,2.72,1.6,4.35H143.18z M151.1,24.43c-0.09-1.79-1.83-3.54-3.94-3.48c-2.21,0-3.84,1.62-3.97,3.48H151.1z"/>
	<path class="st0" d="M163.98,22.65c-0.02-0.55-0.3-1.12-1.27-1.12c-0.84,0-1.24,0.53-1.24,1.05c0.02,0.67,0.78,1.03,1.77,1.31
		c1.67,0.46,3.48,0.95,3.5,3.19c0.04,2.15-1.77,3.52-3.95,3.52c-1.62,0-3.8-0.84-3.99-3.37h2.49c0.1,1.12,1.06,1.35,1.54,1.35
		c0.78,0,1.44-0.51,1.43-1.22c0-0.89-0.78-1.14-2.7-1.81c-1.41-0.44-2.55-1.22-2.57-2.72c0-2.05,1.73-3.33,3.75-3.33
		c1.41,0,3.5,0.63,3.71,3.14H163.98z"/>
	<path class="st0" d="M170.26,25.88c0.11,1.67,1.6,2.61,3.02,2.59c1.22,0,2.04-0.55,2.51-1.41h2.57c-0.5,1.16-1.24,2.03-2.11,2.62
		c-0.88,0.61-1.9,0.91-2.99,0.91c-3.21,0-5.51-2.6-5.51-5.51c0-2.97,2.32-5.57,5.48-5.57c1.56,0,2.93,0.59,3.9,1.6
		c1.27,1.31,1.75,2.95,1.54,4.77H170.26z M176.21,23.98c-0.1-0.99-1.14-2.38-2.97-2.36c-1.84,0-2.85,1.33-2.95,2.36H176.21z"/>
	<path class="st0" d="M185.91,19.83h2.34v1.52c0.74-1.05,1.96-1.84,3.69-1.84c3.65,0,5.19,3.1,5.19,5.63c0,2.97-2.11,5.46-5.17,5.46
		c-2.04,0-3.14-1.05-3.56-1.71v1.39v3.65h-2.49V19.83z M194.64,25.04c0-1.5-1.08-3.21-3.19-3.21c-0.91,0-1.69,0.36-2.26,0.95
		c-0.55,0.57-0.89,1.39-0.89,2.3c0,0.89,0.34,1.69,0.91,2.26c0.57,0.57,1.37,0.93,2.26,0.93c1.9,0,3.18-1.5,3.18-3.21V25.04z"/>
	<path class="st0" d="M208.5,30.27h-2.34v-1.39c-0.44,0.82-1.37,1.73-3.25,1.71c-3.42-0.02-4.07-2.62-4.07-4.45v-6.31h2.49v5.69
		c0,1.54,0.51,2.76,2.28,2.74c1.79,0,2.4-1.18,2.4-2.66v-5.76h2.49V30.27z"/>
	<path class="st0" d="M212.63,25.88c0.11,1.67,1.6,2.61,3.02,2.59c1.22,0,2.04-0.55,2.51-1.41h2.57c-0.5,1.16-1.24,2.03-2.11,2.62
		c-0.88,0.61-1.9,0.91-2.99,0.91c-3.21,0-5.51-2.6-5.51-5.51c0-2.97,2.32-5.57,5.48-5.57c1.56,0,2.93,0.59,3.9,1.6
		c1.27,1.31,1.75,2.95,1.54,4.77H212.63z M218.58,23.98c-0.1-0.99-1.14-2.38-2.97-2.36c-1.84,0-2.85,1.33-2.95,2.36H218.58z"/>
	<path class="st0" d="M233.43,30.27h-2.38v-1.5c-0.46,0.78-1.44,1.83-3.57,1.83c-3.21,0-5.29-2.51-5.29-5.55
		c0-3.38,2.41-5.53,5.25-5.53c2,0,3.12,1.06,3.5,1.67v-1.52V16.2h2.49V30.27z M224.69,25.04c0,1.77,1.27,3.21,3.19,3.21
		c0.91,0,1.73-0.36,2.32-0.95c0.59-0.59,0.93-1.41,0.89-2.32c0-0.91-0.36-1.69-0.93-2.24c-0.57-0.57-1.37-0.91-2.26-0.91
		c-2.03,0-3.21,1.56-3.21,3.19V25.04z"/>
	<path class="st0" d="M237.58,25.88c0.11,1.67,1.6,2.61,3.02,2.59c1.22,0,2.04-0.55,2.51-1.41h2.57c-0.5,1.16-1.24,2.03-2.11,2.62
		c-0.88,0.61-1.9,0.91-2.99,0.91c-3.21,0-5.51-2.6-5.51-5.51c0-2.97,2.32-5.57,5.48-5.57c1.56,0,2.93,0.59,3.9,1.6
		c1.27,1.31,1.75,2.95,1.54,4.77H237.58z M243.53,23.98c-0.1-0.99-1.14-2.38-2.97-2.36c-1.84,0-2.85,1.33-2.95,2.36H243.53z"/>
	<path class="st0" d="M253.23,19.83h2.34v1.31c0.23-0.48,1.24-1.64,3.04-1.64c0.86,0,1.81,0.25,2.57,1.06
		c0.23,0.25,0.5,0.68,0.63,0.95c0.19-0.32,0.42-0.67,0.76-0.99c0.65-0.61,1.56-1.03,2.66-1.03c0.88,0,1.98,0.23,2.78,1.05
		c0.95,0.99,1.14,1.84,1.14,3.99v5.72h-2.49v-5.63c0-0.67-0.06-1.39-0.42-1.94c-0.27-0.51-0.76-0.86-1.63-0.86
		c-0.88,0-1.48,0.38-1.81,0.95c-0.32,0.57-0.36,1.12-0.36,1.75v5.72h-2.49v-5.72c0-0.61-0.06-1.2-0.32-1.73
		c-0.3-0.55-0.82-0.95-1.71-0.97c-0.91,0-1.48,0.44-1.79,0.97c-0.3,0.55-0.4,1.2-0.4,1.81v5.65h-2.49V19.83z"/>
	<path class="st0" d="M273.22,25.88c0.11,1.67,1.6,2.61,3.02,2.59c1.22,0,2.04-0.55,2.51-1.41h2.57c-0.5,1.16-1.24,2.03-2.11,2.62
		c-0.88,0.61-1.9,0.91-2.99,0.91c-3.21,0-5.51-2.6-5.51-5.51c0-2.97,2.32-5.57,5.48-5.57c1.56,0,2.93,0.59,3.9,1.6
		c1.27,1.31,1.75,2.95,1.54,4.77H273.22z M279.17,23.98c-0.1-0.99-1.14-2.38-2.97-2.36c-1.84,0-2.85,1.33-2.95,2.36H279.17z"/>
	<path class="st0" d="M286.29,30.08c0,2.21-0.34,3.99-3.52,4.11h-0.65v-1.94h0.36c1.25-0.1,1.31-1.05,1.31-2.09V19.83h2.49V30.08z
		 M283.8,16.2h2.49v2.22h-2.49V16.2z"/>
	<path class="st0" d="M288.21,25.02c0-2.66,1.96-5.49,5.59-5.49c3.63,0,5.59,2.83,5.59,5.51c0,2.7-1.96,5.53-5.59,5.53
		c-3.63,0-5.59-2.83-5.59-5.53V25.02z M290.7,25.06c0,1.82,1.39,3.17,3.1,3.17s3.08-1.35,3.08-3.19c0-1.84-1.37-3.19-3.08-3.19
		s-3.1,1.35-3.1,3.19V25.06z"/>
	<path class="st0" d="M301.1,19.83h2.36v1.37c0.46-0.93,1.31-1.67,2.89-1.69v2.51h-0.11c-1.75,0-2.64,0.82-2.64,2.62v5.63h-2.49
		V19.83z"/>
	<path class="st0" d="M317.84,30.27h-2.49v-1.5c-0.67,1.22-2.05,1.83-3.52,1.83c-3.35,0-5.3-2.6-5.3-5.55c0-3.29,2.38-5.53,5.3-5.53
		c1.9,0,3.06,1.01,3.52,1.84v-1.52h2.49V30.27z M309.01,25.1c0,1.29,0.93,3.18,3.18,3.18c1.39,0,2.3-0.72,2.78-1.67
		c0.25-0.46,0.36-0.95,0.4-1.46c0.02-0.5-0.08-1.01-0.29-1.46c-0.44-0.99-1.41-1.84-2.91-1.84c-2.02,0-3.16,1.63-3.16,3.25V25.1z"/>
	<path class="st0" d="M320.1,19.83h2.36v1.37c0.46-0.93,1.31-1.67,2.89-1.69v2.51h-0.11c-1.75,0-2.64,0.82-2.64,2.62v5.63h-2.49
		V19.83z"/>
</g>
</svg>
