<?xml version="1.0" encoding="utf-8"?>
<!-- Generator: Adobe Illustrator 13.0.1, SVG Export Plug-In . SVG Version: 6.00 Build 14948)  -->
<!DOCTYPE svg PUBLIC "-//W3C//DTD SVG 1.1//EN" "http://www.w3.org/Graphics/SVG/1.1/DTD/svg11.dtd">
<svg version="1.1" id="Capa_1" xmlns="http://www.w3.org/2000/svg" xmlns:xlink="http://www.w3.org/1999/xlink" x="0px" y="0px"
	 viewBox="0 0 595.275 841.891" enable-background="new 0 0 595.275 841.891"
	 xml:space="preserve">
<linearGradient id="SVGID_1_" gradientUnits="userSpaceOnUse" x1="42.2808" y1="590.8562" x2="457.4805" y2="590.8562" gradientTransform="matrix(1.1906 0 0 -1.1906 0.1417 1124.3894)">
	<stop  offset="0" style="stop-color:#0082FF"/>
	<stop  offset="0.9969" style="stop-color:#001355"/>
</linearGradient>
<ellipse fill="url(#SVGID_1_)" cx="297.638" cy="420.945" rx="247.158" ry="247.158"/>
<path fill="#FFFFFF" d="M438.315,579.003H331.653c-20.81,0-31.217-7.804-36.418-15.609c-10.407-10.405-10.407-26.014-10.407-31.217
	v-26.015h-83.245l-44.227,33.819V337.068c0-23.413,18.213-41.623,44.227-41.623h179.499c23.414,0,44.225,18.21,44.225,41.623V467.14
	c-2.603,20.813-15.607,33.819-33.819,39.021h46.828V579.003L438.315,579.003z"/>
<linearGradient id="SVGID_2_" gradientUnits="userSpaceOnUse" x1="231.1992" y1="450.0603" x2="423.7041" y2="450.0603">
	<stop  offset="0" style="stop-color:#0082FF"/>
	<stop  offset="0.9969" style="stop-color:#001355"/>
</linearGradient>
<path fill="url(#SVGID_2_)" d="M301.437,541.112c0,5.204,2.603,10.405,7.805,13.007c5.204,2.602,10.406,5.203,18.212,5.203h96.251
	v-39.021h-70.236v-158.69c0-13.007-7.805-20.813-26.015-20.813c-18.212,0-31.218,2.602-41.625,10.407l-2.602,2.602v-13.009h-52.027
	v148.283h52.027v-109.26h18.21v150.884V541.112z"/>
</svg>
