<?xml version="1.0" encoding="utf-8"?>
<!-- Generator: Adobe Illustrator 23.1.1, SVG Export Plug-In . SVG Version: 6.00 Build 0)  -->
<svg version="1.1" id="Capa_1" xmlns="http://www.w3.org/2000/svg" xmlns:xlink="http://www.w3.org/1999/xlink" x="0px" y="0px"
	 viewBox="0 0 500 500" style="enable-background:new 0 0 500 500;" xml:space="preserve">
<style type="text/css">
	.st0{fill:#FFFFFF;}
	.st1{fill:url(#SVGID_1_);}
</style>
<g>
	<circle class="st0" cx="250" cy="250" r="196"/>
	
		<linearGradient id="SVGID_1_" gradientUnits="userSpaceOnUse" x1="406.5774" y1="692.6627" x2="395.7813" y2="336.3101" gradientTransform="matrix(1 0 0 -1 -151.9531 790.0245)">
		<stop  offset="0" style="stop-color:#0082FF"/>
		<stop  offset="0.9969" style="stop-color:#001355"/>
	</linearGradient>
	<path class="st1" d="M250,67.8C149.4,67.8,67.8,149.4,67.8,250c0,100.6,81.6,182.2,182.2,182.2S432.2,350.6,432.2,250
		C432.2,149.4,350.6,67.8,250,67.8z M250,421.4c-94.7,0-171.4-76.8-171.4-171.4c0-94.7,76.8-171.4,171.4-171.4
		c94.7,0,171.4,76.8,171.4,171.4C421.4,344.7,344.7,421.4,250,421.4z M93.4,250c0,57.4,31,107.6,77.1,134.9L97.3,215.3
		C94.8,226.5,93.4,238.1,93.4,250z M212.4,339.6c0,0,28.9-70.4,32.9-83c-8.1-42-30.4-60.2-30.4-60.2h-13.2l-0.5-8.1l103.8,0.5v7.6
		c0,0,0,0-14.7,0c-10.6,2.5-8.1,12.7-8.1,12.7l49.7,129.7c13.8-37,37-75,23.7-129.7c-21.4-48.4,1.8-61.2,11.5-62.9
		c-28.7-32.3-70.5-52.7-117.1-52.7c-65.3,0-121.3,40-144.7,96.8l72.7-1c0,0,1,5.6,0,8.6c-21.3-1-22.8,8.1-21.3,13.7
		c2.5,6.6,20.2,54.2,35.9,96.7C208.8,350.2,212.4,339.6,212.4,339.6z M395.6,192.3c-0.2,4.8-0.6,9.8-1.5,12.1
		c-1.8,4.5-47.7,120.4-57.7,145.9l0.5,1.4L322.1,389c50.2-26.1,84.5-78.5,84.5-139C406.6,229.6,402.6,210.2,395.6,192.3z
		 M197.6,397.5c16.4,5.8,34.1,9,52.4,9c18,0,35.3-3.1,51.4-8.7l-50.5-121.1L197.6,397.5z"/>
</g>
</svg>
