<?xml version="1.0" encoding="utf-8"?>
<!-- Generator: Adobe Illustrator 13.0.1, SVG Export Plug-In . SVG Version: 6.00 Build 14948)  -->
<!DOCTYPE svg PUBLIC "-//W3C//DTD SVG 1.1//EN" "http://www.w3.org/Graphics/SVG/1.1/DTD/svg11.dtd">
<svg version="1.1" id="Capa_1" xmlns="http://www.w3.org/2000/svg" xmlns:xlink="http://www.w3.org/1999/xlink" x="0px" y="0px"
	viewBox="0 0 595.275 841.891" enable-background="new 0 0 595.275 841.891"
	 xml:space="preserve">
<g id="Layer_2" display="none">
	<g display="inline">
		<rect x="-2584.749" y="-1775.309" stroke="#FFFFFF" stroke-miterlimit="10" width="16479.734" height="6297.389"/>
	</g>
</g>
<g>
	<path fill="#FFFFFF" d="M197.62,537.345L197.62,537.345L197.62,537.345z"/>
	<linearGradient id="SVGID_1_" gradientUnits="userSpaceOnUse" x1="218.3359" y1="423.4089" x2="378.8838" y2="423.4089">
		<stop  offset="0" style="stop-color:#0082FF"/>
		<stop  offset="0.9969" style="stop-color:#001355"/>
	</linearGradient>
	<path fill="url(#SVGID_1_)" d="M218.336,330.188l137.242,181.263c2.59,2.59,2.59,5.18,5.18,5.18c5.179,0,10.358,0,18.126,0
		L236.463,330.188H218.336z"/>
	<linearGradient id="SVGID_2_" gradientUnits="userSpaceOnUse" x1="50.0205" y1="418.2302" x2="542.0205" y2="418.2302">
		<stop  offset="0" style="stop-color:#0082FF"/>
		<stop  offset="0.9969" style="stop-color:#001355"/>
	</linearGradient>
	<path fill="url(#SVGID_2_)" d="M296.021,172.23c-134.652,0-246,111.347-246,246c0,134.653,111.348,246,246,246
		c134.653,0,246-111.347,246-246C542.021,283.577,433.263,172.23,296.021,172.23z M422.905,539.936c0,2.589-2.59,5.179-5.179,5.179
		h-2.591h-33.663H347.81c-2.59,0-5.179-2.59-7.768-5.179l-62.147-82.864l-77.685,82.864c-2.59,2.589-5.179,2.589-7.769,2.589
		h-10.357c-2.59,0-2.59,0-5.18,0h-5.179l-2.589-5.18c0-2.589,0-5.178,2.589-7.768c0-2.59,2.589-2.59,2.589-5.18c0,0,0,0,2.59-2.589
		l85.453-90.632l-93.221-121.705l2.589-5.179c0,0,2.589-5.179,7.769-5.179c0,2.589,2.59,2.589,5.179,2.589h10.357h49.2
		c5.18,0,7.77,2.589,10.359,5.179c0,0,0,2.59,2.589,5.179l54.379,72.505l0,0l67.326-72.505c2.589-2.589,5.18-5.179,7.769-7.769
		v-2.589h7.769h15.537h2.589c2.589,0,5.18,2.589,5.18,5.179v2.59l-90.632,95.811l95.811,129.474V539.936z"/>
</g>
</svg>
